<svg width="167" height="41" viewBox="0 0 167 41" fill="none" xmlns="http://www.w3.org/2000/svg">
<path d="M58.696 34.612C56.824 34.612 55.888 33.808 55.888 32.2C55.888 31.672 55.96 31.072 56.104 30.4C56.272 29.704 56.5 28.816 56.788 27.736C57.124 26.608 57.376 25.648 57.544 24.856C57.712 24.064 57.796 23.356 57.796 22.732C57.796 21.1 57.076 20.284 55.636 20.284C55.228 20.284 54.832 20.332 54.448 20.428L51.568 34H46.384L51.604 9.52C49.996 10.192 48.748 11.2 47.86 12.544C46.996 13.888 46.564 15.508 46.564 17.404C46.564 18.292 46.648 18.916 46.816 19.276C46.984 19.612 47.068 19.804 47.068 19.852C45.772 19.852 44.8 19.588 44.152 19.06C43.528 18.508 43.216 17.608 43.216 16.36C43.216 14.824 43.84 13.336 45.088 11.896C46.36 10.432 47.98 9.256 49.948 8.368C51.916 7.456 53.884 7 55.852 7C56.188 7 56.668 7.024 57.292 7.072L54.952 18.088L58.66 13.12C61.612 9.136 63.1 7.156 63.124 7.18H66.904L56.896 18.7L58.156 18.664C59.788 18.664 60.94 19.012 61.612 19.708C62.284 20.38 62.62 21.316 62.62 22.516C62.62 23.212 62.536 23.956 62.368 24.748C62.2 25.516 61.96 26.476 61.648 27.628C61.456 28.372 61.276 29.104 61.108 29.824C60.94 30.544 60.856 31.144 60.856 31.624C60.856 32.176 60.976 32.668 61.216 33.1C61.48 33.532 61.828 33.832 62.26 34C60.796 34.408 59.608 34.612 58.696 34.612ZM72.0731 14.056C71.2811 14.056 70.6091 13.78 70.0571 13.228C69.5051 12.676 69.2291 12.004 69.2291 11.212C69.2291 10.42 69.5051 9.748 70.0571 9.196C70.6091 8.62 71.2811 8.332 72.0731 8.332C72.8651 8.332 73.5371 8.62 74.0891 9.196C74.6651 9.748 74.9531 10.42 74.9531 11.212C74.9531 12.004 74.6651 12.676 74.0891 13.228C73.5371 13.78 72.8651 14.056 72.0731 14.056ZM69.6251 34.216C68.4731 34.216 67.5371 33.856 66.8171 33.136C66.1211 32.416 65.7731 31.336 65.7731 29.896C65.7731 29.296 65.8691 28.516 66.0611 27.556L68.5091 16H73.6931L71.1011 28.24C71.0051 28.6 70.9571 28.984 70.9571 29.392C70.9571 29.872 71.0651 30.22 71.2811 30.436C71.5211 30.628 71.9051 30.724 72.4331 30.724C73.1291 30.724 73.7771 30.436 74.3771 29.86C74.9771 29.26 75.4091 28.492 75.6731 27.556H77.1851C76.2971 30.148 75.1571 31.912 73.7651 32.848C72.3731 33.76 70.9931 34.216 69.6251 34.216ZM81.4188 34.216C80.0508 34.216 78.9108 33.748 77.9988 32.812C77.0868 31.876 76.6308 30.412 76.6308 28.42C76.6308 26.644 76.9788 24.784 77.6748 22.84C78.3948 20.872 79.4508 19.216 80.8428 17.872C82.2588 16.504 83.9388 15.82 85.8828 15.82C86.8668 15.82 87.5988 15.988 88.0788 16.324C88.5588 16.66 88.7988 17.104 88.7988 17.656V17.8L90.5628 9.52L95.8908 8.8L91.7508 28.24C91.6548 28.6 91.6068 28.948 91.6068 29.284C91.6068 30.244 92.0988 30.724 93.0828 30.724C93.5148 30.724 93.8988 30.652 94.2348 30.508C94.1388 31.708 93.7068 32.632 92.9388 33.28C92.1948 33.904 91.3068 34.216 90.2748 34.216C89.3148 34.216 88.4988 33.976 87.8268 33.496C87.1788 32.992 86.7468 32.236 86.5308 31.228C85.0908 33.22 83.3868 34.216 81.4188 34.216ZM83.7588 30.724C84.2868 30.724 84.8148 30.496 85.3428 30.04C85.8948 29.584 86.3028 28.948 86.5668 28.132L86.7108 27.556L88.4748 19.312C88.2588 18.472 87.7668 18.052 86.9988 18.052C86.0388 18.052 85.1748 18.616 84.4068 19.744C83.6388 20.848 83.0388 22.192 82.6068 23.776C82.1748 25.336 81.9588 26.716 81.9588 27.916C81.9588 29.116 82.1268 29.884 82.4628 30.22C82.8228 30.556 83.2548 30.724 83.7588 30.724ZM104.48 9.52C102.872 10.192 101.624 11.2 100.736 12.544C99.8718 13.888 99.4398 15.508 99.4398 17.404C99.4398 18.292 99.5238 18.916 99.6918 19.276C99.8598 19.612 99.9438 19.804 99.9438 19.852C98.6478 19.852 97.6758 19.588 97.0278 19.06C96.4038 18.508 96.0918 17.608 96.0918 16.36C96.0918 14.824 96.7158 13.336 97.9638 11.896C99.2358 10.432 100.856 9.256 102.824 8.368C104.792 7.456 106.76 7 108.728 7C109.064 7 109.544 7.024 110.168 7.072L107.864 17.8H113.156L115.46 7.072H120.644L114.92 34H109.736L112.616 20.464H107.324L104.444 34H99.2598L104.48 9.52ZM125.361 34.216C123.993 34.216 122.853 33.748 121.941 32.812C121.029 31.876 120.573 30.412 120.573 28.42C120.573 26.644 120.921 24.784 121.617 22.84C122.337 20.872 123.393 19.216 124.785 17.872C126.201 16.504 127.881 15.82 129.825 15.82C130.809 15.82 131.541 15.988 132.021 16.324C132.501 16.66 132.741 17.104 132.741 17.656V17.908L133.137 16H138.321L135.729 28.24C135.633 28.6 135.585 28.984 135.585 29.392C135.585 30.424 136.077 30.94 137.061 30.94C137.733 30.94 138.309 30.628 138.789 30.004C139.293 29.38 139.689 28.564 139.977 27.556H141.489C140.601 30.148 139.497 31.912 138.177 32.848C136.881 33.76 135.573 34.216 134.253 34.216C133.245 34.216 132.429 33.94 131.805 33.388C131.205 32.812 130.845 31.984 130.725 30.904C130.029 31.888 129.249 32.692 128.385 33.316C127.545 33.916 126.537 34.216 125.361 34.216ZM127.701 30.724C128.301 30.724 128.889 30.448 129.465 29.896C130.065 29.32 130.473 28.54 130.689 27.556L132.417 19.42C132.417 19.108 132.297 18.808 132.057 18.52C131.817 18.208 131.445 18.052 130.941 18.052C129.981 18.052 129.117 18.616 128.349 19.744C127.581 20.848 126.981 22.192 126.549 23.776C126.117 25.336 125.901 26.716 125.901 27.916C125.901 29.116 126.069 29.884 126.405 30.22C126.765 30.556 127.197 30.724 127.701 30.724ZM146.218 34.216C144.586 34.216 143.338 33.82 142.474 33.028C141.61 32.212 141.178 31.072 141.178 29.608C141.178 28.888 141.262 28.204 141.43 27.556L145.282 9.52L150.61 8.8L148.882 16.9C149.554 16.492 150.106 16.228 150.538 16.108C150.97 15.964 151.402 15.892 151.834 15.892C154.666 15.892 156.082 17.944 156.082 22.048C156.082 23.704 155.758 25.48 155.11 27.376C154.486 29.248 153.43 30.856 151.942 32.2C150.478 33.544 148.57 34.216 146.218 34.216ZM148.234 30.724C148.978 30.724 149.674 30.268 150.322 29.356C150.97 28.42 151.486 27.268 151.87 25.9C152.254 24.508 152.446 23.176 152.446 21.904C152.446 20.944 152.278 20.128 151.942 19.456C151.606 18.784 151.138 18.448 150.538 18.448C150.178 18.448 149.77 18.508 149.314 18.628C148.882 18.724 148.582 18.88 148.414 19.096L146.434 28.24C146.362 28.528 146.326 28.804 146.326 29.068C146.326 30.172 146.962 30.724 148.234 30.724Z" fill="white"/>
<path fill-rule="evenodd" clip-rule="evenodd" d="M27.3091 5.50605C24.1319 4.08052 20.5835 3.69612 17.1735 4.40805C13.7636 5.11997 10.6675 6.8916 8.32991 9.46852C5.9923 12.0454 4.53341 15.2951 4.16275 18.7508C3.79209 22.2065 4.52872 25.6905 6.26687 28.7025C8.00501 31.7145 10.6552 34.0995 13.837 35.5151C17.0187 36.9306 20.5683 37.3039 23.976 36.5813C27.3837 35.8587 30.4742 34.0773 32.8036 31.4931C35.1331 28.9089 36.5818 25.6547 36.9415 22.1978C37.0576 21.0828 38.0577 20.2728 39.1754 20.3885C40.293 20.5043 41.105 21.502 40.989 22.617C40.5404 26.9274 38.734 30.9851 35.8294 34.2074C32.9247 37.4298 29.0712 39.6509 24.8221 40.552C20.573 41.453 16.147 40.9876 12.1796 39.2225C8.21223 37.4574 4.90762 34.4835 2.74031 30.7278C0.572995 26.9721 -0.345521 22.6279 0.116661 18.3189C0.578843 14.0099 2.39795 9.9579 5.31274 6.7447C8.22754 3.5315 12.0881 1.32244 16.34 0.434727C20.5919 -0.452983 25.0164 0.0263319 28.9782 1.80384C30.003 2.26363 30.4601 3.46514 29.9992 4.48747C29.5383 5.50981 28.3339 5.96584 27.3091 5.50605Z" fill="white"/>
<path fill-rule="evenodd" clip-rule="evenodd" d="M27.3091 5.50605C24.1319 4.08052 20.5835 3.69612 17.1735 4.40805C13.7636 5.11997 10.6675 6.8916 8.32991 9.46852C5.9923 12.0454 4.53341 15.2951 4.16275 18.7508C3.79209 22.2065 4.52872 25.6905 6.26687 28.7025C8.00501 31.7145 10.6552 34.0995 13.837 35.5151C17.0187 36.9306 20.5683 37.3039 23.976 36.5813C27.3837 35.8587 30.4742 34.0773 32.8036 31.4931C35.1331 28.9089 36.5818 25.6547 36.9415 22.1978C37.0576 21.0828 38.0577 20.2728 39.1754 20.3885C40.293 20.5043 41.105 21.502 40.989 22.617C40.5404 26.9274 38.734 30.9851 35.8294 34.2074C32.9247 37.4298 29.0712 39.6509 24.8221 40.552C20.573 41.453 16.147 40.9876 12.1796 39.2225C8.21223 37.4574 4.90762 34.4835 2.74031 30.7278C0.572995 26.9721 -0.345521 22.6279 0.116661 18.3189C0.578843 14.0099 2.39795 9.9579 5.31274 6.7447C8.22754 3.5315 12.0881 1.32244 16.34 0.434727C20.5919 -0.452983 25.0164 0.0263319 28.9782 1.80384C30.003 2.26363 30.4601 3.46514 29.9992 4.48747C29.5383 5.50981 28.3339 5.96584 27.3091 5.50605Z" fill="#1053FF" fill-opacity="0.5"/>
<path fill-rule="evenodd" clip-rule="evenodd" d="M27.3091 5.50605C24.1319 4.08052 20.5835 3.69612 17.1735 4.40805C13.7636 5.11997 10.6675 6.8916 8.32991 9.46852C5.9923 12.0454 4.53341 15.2951 4.16275 18.7508C3.79209 22.2065 4.52872 25.6905 6.26687 28.7025C8.00501 31.7145 10.6552 34.0995 13.837 35.5151C17.0187 36.9306 20.5683 37.3039 23.976 36.5813C27.3837 35.8587 30.4742 34.0773 32.8036 31.4931C35.1331 28.9089 36.5818 25.6547 36.9415 22.1978C37.0576 21.0828 38.0577 20.2728 39.1754 20.3885C40.293 20.5043 41.105 21.502 40.989 22.617C40.5404 26.9274 38.734 30.9851 35.8294 34.2074C32.9247 37.4298 29.0712 39.6509 24.8221 40.552C20.573 41.453 16.147 40.9876 12.1796 39.2225C8.21223 37.4574 4.90762 34.4835 2.74031 30.7278C0.572995 26.9721 -0.345521 22.6279 0.116661 18.3189C0.578843 14.0099 2.39795 9.9579 5.31274 6.7447C8.22754 3.5315 12.0881 1.32244 16.34 0.434727C20.5919 -0.452983 25.0164 0.0263319 28.9782 1.80384C30.003 2.26363 30.4601 3.46514 29.9992 4.48747C29.5383 5.50981 28.3339 5.96584 27.3091 5.50605Z" fill="url(#paint0_linear)" style="mix-blend-mode:overlay"/>
<path fill-rule="evenodd" clip-rule="evenodd" d="M37.9217 8.72431C39.2196 9.80255 39.3665 11.6926 38.2499 12.9459L23.0921 29.9588C22.5218 30.5989 21.698 30.9767 20.8239 30.999C19.9497 31.0212 19.1065 30.686 18.502 30.0758L8.85993 20.3428C7.67644 19.1482 7.71993 17.2533 8.95709 16.1105C10.1942 14.9676 12.1566 15.0096 13.3401 16.2043L20.6204 23.5532L33.55 9.04122C34.6666 7.78796 36.6239 7.64607 37.9217 8.72431Z" fill="#FFD324"/>
<path fill-rule="evenodd" clip-rule="evenodd" d="M37.9217 8.72431C39.2196 9.80255 39.3665 11.6926 38.2499 12.9459L23.0921 29.9588C22.5218 30.5989 21.698 30.9767 20.8239 30.999C19.9497 31.0212 19.1065 30.686 18.502 30.0758L8.85993 20.3428C7.67644 19.1482 7.71993 17.2533 8.95709 16.1105C10.1942 14.9676 12.1566 15.0096 13.3401 16.2043L20.6204 23.5532L33.55 9.04122C34.6666 7.78796 36.6239 7.64607 37.9217 8.72431Z" fill="url(#paint1_linear)"/>
<defs>
<linearGradient id="paint0_linear" x1="26.2508" y1="0.729995" x2="11.2529" y2="41.0237" gradientUnits="userSpaceOnUse">
<stop offset="0.213542" stop-color="white"/>
<stop offset="1" stop-color="white" stop-opacity="0"/>
</linearGradient>
<linearGradient id="paint1_linear" x1="23.5" y1="10.9935" x2="23.5" y2="28.0065" gradientUnits="userSpaceOnUse">
<stop stop-color="#FFD324"/>
<stop offset="0.984375" stop-color="#F48C12"/>
</linearGradient>
</defs>
</svg>
